<svg width="16" height="17" viewBox="0 0 16 17" fill="none" xmlns="http://www.w3.org/2000/svg">
<path d="M0 0.889954H16V16.89H0V0.889954Z" fill="white"/>
<path fill-rule="evenodd" clip-rule="evenodd" d="M10.1752 3.31555C9.6784 3.93395 8.844 4.39795 8.1784 4.39795C8.1032 4.39795 8.028 4.38835 7.9816 4.37795C7.96299 4.28901 7.95334 4.19842 7.9528 4.10755C7.9528 3.31555 8.3368 2.54195 8.7592 2.04915C9.2936 1.40195 10.184 0.918754 10.9248 0.889954C10.944 0.977154 10.9528 1.08355 10.9528 1.18915C10.9528 1.97235 10.6248 2.75475 10.1752 3.31555ZM6.9144 15.802C6.5808 15.95 6.264 16.09 5.8344 16.09C4.916 16.09 4.2784 15.2204 3.5464 14.1572C2.6936 12.9012 2 10.9588 2 9.12275C2 6.16595 3.8656 4.60035 5.7032 4.60035C6.2392 4.60035 6.7296 4.80355 7.1656 4.98355C7.5144 5.12755 7.828 5.25795 8.1032 5.25795C8.3416 5.25795 8.6392 5.13635 8.9856 4.99555C9.4696 4.79795 10.0496 4.56195 10.7 4.56195C11.1128 4.56195 12.6216 4.60035 13.616 6.06915L13.58 6.09395C13.3352 6.26035 12.0312 7.14835 12.0312 8.96835C12.0312 11.2196 13.9344 12.022 14 12.0412L13.988 12.078C13.9256 12.2772 13.628 13.2284 12.988 14.1964C12.3592 15.1244 11.6936 16.0708 10.7 16.0708C10.2104 16.0708 9.8984 15.9284 9.576 15.7812C9.232 15.6244 8.8768 15.4612 8.2816 15.4612C7.6824 15.4612 7.288 15.6372 6.9144 15.802Z" fill="black"/>
</svg>
