<svg width="41" height="21" viewBox="0 0 41 21" fill="none" xmlns="http://www.w3.org/2000/svg">
<g clip-path="url(#clip0_1_6845)">
<g clip-path="url(#clip1_1_6845)">
<g clip-path="url(#clip2_1_6845)">
<path d="M36.5129 0.635132H4.18207C2.10581 0.635132 0.422668 2.31827 0.422668 4.39453V16.575C0.422668 18.6512 2.10581 20.3344 4.18207 20.3344H36.5129C38.5892 20.3344 40.2723 18.6512 40.2723 16.575V4.39453C40.2723 2.31827 38.5892 0.635132 36.5129 0.635132Z" fill="#1D1C20"/>
<path d="M9.68475 14.3193V6.66382H12.4883C13.0316 6.66382 13.4814 6.75353 13.8377 6.93296C14.1941 7.10989 14.4607 7.35037 14.6377 7.6544C14.8146 7.95594 14.9031 8.2961 14.9031 8.67489C14.9031 8.99386 14.8445 9.26301 14.7274 9.4823C14.6102 9.69911 14.4532 9.87355 14.2564 10.0056C14.062 10.1352 13.8477 10.2299 13.6134 10.2897V10.3645C13.8676 10.3769 14.1156 10.4592 14.3573 10.6112C14.6015 10.7607 14.8034 10.9738 14.9629 11.2504C15.1224 11.527 15.2021 11.8634 15.2021 12.2597C15.2021 12.6509 15.1099 13.0023 14.9255 13.3138C14.7436 13.6228 14.462 13.8683 14.0807 14.0502C13.6994 14.2296 13.2122 14.3193 12.6191 14.3193H9.68475ZM10.8398 13.3288H12.507C13.0602 13.3288 13.4564 13.2216 13.6957 13.0073C13.9349 12.793 14.0545 12.5251 14.0545 12.2036C14.0545 11.9619 13.9935 11.7401 13.8714 11.5382C13.7492 11.3364 13.5748 11.1756 13.348 11.056C13.1237 10.9364 12.8571 10.8766 12.5481 10.8766H10.8398V13.3288ZM10.8398 9.97573H12.3874C12.6465 9.97573 12.8795 9.92589 13.0864 9.82621C13.2957 9.72652 13.4614 9.58698 13.5835 9.40755C13.7081 9.22562 13.7704 9.01131 13.7704 8.7646C13.7704 8.44812 13.6595 8.18272 13.4377 7.9684C13.216 7.75409 12.8758 7.64693 12.4173 7.64693H10.8398V9.97573ZM18.957 14.4352C18.3913 14.4352 17.9041 14.3143 17.4954 14.0726C17.0892 13.8284 16.7752 13.4857 16.5534 13.0447C16.3342 12.6011 16.2244 12.0815 16.2244 11.4859C16.2244 10.8978 16.3342 10.3794 16.5534 9.93087C16.7752 9.4823 17.0842 9.13218 17.4805 8.88048C17.8791 8.62878 18.3451 8.50295 18.8785 8.50295C19.2024 8.50295 19.5164 8.55652 19.8205 8.66367C20.1245 8.77083 20.3973 8.93905 20.6391 9.16831C20.8808 9.39758 21.0715 9.69537 21.211 10.0617C21.3506 10.4255 21.4203 10.8679 21.4203 11.3887V11.7849H16.8561V10.9476H20.3251C20.3251 10.6536 20.2653 10.3931 20.1456 10.1664C20.026 9.9371 19.8578 9.75643 19.6411 9.62434C19.4266 9.49227 19.1751 9.42624 18.8859 9.42624C18.5719 9.42624 18.2978 9.50349 18.0636 9.658C17.8318 9.81001 17.6524 10.0094 17.5253 10.2561C17.4006 10.5003 17.3384 10.7657 17.3384 11.0523V11.7064C17.3384 12.0902 17.4057 12.4167 17.5402 12.6858C17.6773 12.9549 17.868 13.1605 18.1122 13.3026C18.3564 13.4421 18.6417 13.5119 18.9682 13.5119C19.18 13.5119 19.3731 13.482 19.5476 13.4222C19.722 13.3599 19.8728 13.2677 19.9999 13.1456C20.127 13.0235 20.2241 12.8727 20.2915 12.6933L21.3494 12.8839C21.2645 13.1954 21.1125 13.4683 20.8933 13.7026C20.6764 13.9343 20.4036 14.115 20.0746 14.2446C19.7482 14.3717 19.3757 14.4352 18.957 14.4352ZM25.3406 8.5777V9.47483H22.2044V8.5777H25.3406ZM23.0454 7.2021H24.1632V12.6335C24.1632 12.8503 24.1955 13.0135 24.2603 13.1232C24.3251 13.2303 24.4086 13.3038 24.5107 13.3437C24.6154 13.3811 24.7288 13.3998 24.8509 13.3998C24.9406 13.3998 25.0191 13.3935 25.0863 13.3811C25.1537 13.3686 25.206 13.3586 25.2433 13.3512L25.4453 14.2745C25.3805 14.2994 25.2883 14.3243 25.1686 14.3492C25.0491 14.3766 24.8996 14.3916 24.72 14.3941C24.426 14.3991 24.1519 14.3467 23.8978 14.2371C23.6435 14.1274 23.4379 13.958 23.2809 13.7287C23.1239 13.4995 23.0454 13.2116 23.0454 12.8652V7.2021ZM28.2479 14.4464C27.8841 14.4464 27.5551 14.3791 27.2611 14.2446C26.967 14.1075 26.734 13.9094 26.562 13.6502C26.3925 13.3911 26.3079 13.0733 26.3079 12.697C26.3079 12.3731 26.3701 12.1064 26.4948 11.8971C26.6193 11.6877 26.7875 11.522 26.9993 11.3999C27.2112 11.2778 27.4479 11.1856 27.7095 11.1233C27.9713 11.061 28.2379 11.0137 28.5095 10.9813C28.8534 10.9414 29.1325 10.909 29.3468 10.8841C29.5611 10.8567 29.7169 10.8131 29.8142 10.7532C29.9113 10.6934 29.9599 10.5962 29.9599 10.4617V10.4355C29.9599 10.1091 29.8677 9.8561 29.6832 9.67669C29.5014 9.49726 29.2297 9.40755 28.8683 9.40755C28.4921 9.40755 28.1955 9.49102 27.9787 9.658C27.7644 9.82246 27.6161 10.0056 27.5339 10.2075L26.4835 9.96825C26.6082 9.61937 26.79 9.33777 27.0292 9.12346C27.271 8.90665 27.5489 8.74965 27.8629 8.65246C28.1769 8.55278 28.5071 8.50295 28.8534 8.50295C29.0827 8.50295 29.3256 8.53034 29.5823 8.58517C29.8415 8.6375 30.0832 8.73469 30.3076 8.87674C30.5343 9.0188 30.7199 9.22189 30.8645 9.48604C31.0091 9.74771 31.0812 10.0879 31.0812 10.5065V14.3193H29.9898V13.5343H29.945C29.8727 13.6789 29.7642 13.8209 29.6197 13.9605C29.4752 14.1 29.2895 14.2159 29.0627 14.3081C28.836 14.4003 28.5644 14.4464 28.2479 14.4464ZM28.4909 13.5493C28.7999 13.5493 29.0639 13.4882 29.2833 13.3661C29.5051 13.244 29.6733 13.0845 29.788 12.8877C29.905 12.6883 29.9636 12.4752 29.9636 12.2484V11.5083C29.9238 11.5482 29.8465 11.5856 29.7319 11.6205C29.6197 11.6529 29.4913 11.6815 29.3468 11.7064C29.2023 11.7289 29.0615 11.75 28.9244 11.77C28.7874 11.7874 28.6728 11.8024 28.5805 11.8148C28.3638 11.8423 28.1656 11.8884 27.9862 11.9531C27.8092 12.0179 27.6672 12.1114 27.56 12.2335C27.4554 12.3531 27.403 12.5126 27.403 12.712C27.403 12.9886 27.5053 13.1979 27.7095 13.34C27.9139 13.4795 28.1743 13.5493 28.4909 13.5493Z" fill="white"/>
</g>
</g>
</g>
<defs>
<clipPath id="clip0_1_6845">
<rect width="40" height="20" fill="white" transform="translate(0.400024 0.505005)"/>
</clipPath>
<clipPath id="clip1_1_6845">
<rect width="40" height="20" fill="white" transform="translate(0.400024 0.505005)"/>
</clipPath>
<clipPath id="clip2_1_6845">
<rect width="40" height="19.8496" fill="white" transform="translate(0.400024 0.5802)"/>
</clipPath>
</defs>
</svg>
