<svg width="19" height="17" viewBox="0 0 19 17" fill="none" xmlns="http://www.w3.org/2000/svg">
<path d="M9.50066 15.3128H3.53929C2.55732 15.3128 2.06634 15.3128 1.69129 15.1217C1.36138 14.9535 1.09315 14.6853 0.925058 14.3554C0.733948 13.9803 0.733948 13.4893 0.733948 12.5074V4.0914C0.733948 3.10945 0.733948 2.61846 0.925058 2.2434C1.09315 1.91349 1.36138 1.64526 1.69129 1.47717C2.06634 1.28607 2.55732 1.28607 3.53929 1.28607H3.88995C5.85387 1.28607 6.83582 1.28607 7.58595 1.66827C8.24572 2.00446 8.78224 2.54092 9.11841 3.20074C9.50066 3.95085 9.50066 4.93282 9.50066 6.89673M9.50066 15.3128V6.89673M9.50066 15.3128H15.462C16.4439 15.3128 16.9349 15.3128 17.3099 15.1217C17.6399 14.9535 17.9081 14.6853 18.0762 14.3554C18.2673 13.9803 18.2673 13.4893 18.2673 12.5074V4.0914C18.2673 3.10945 18.2673 2.61846 18.0762 2.2434C17.9081 1.91349 17.6399 1.64526 17.3099 1.47717C16.9349 1.28607 16.4439 1.28607 15.462 1.28607H15.1113C13.1474 1.28607 12.1654 1.28607 11.4153 1.66827C10.7555 2.00446 10.219 2.54092 9.88283 3.20074C9.50067 3.95085 9.50066 4.93282 9.50066 6.89673" stroke="#344054" stroke-width="1.43455" stroke-linecap="round" stroke-linejoin="round"/>
</svg>
