<svg width="19" height="19" viewBox="0 0 19 19" fill="none" xmlns="http://www.w3.org/2000/svg">
<path d="M5.98394 17.39V5.11665C5.98394 4.30137 5.98394 3.89374 6.07356 3.55929C6.31674 2.65169 7.02566 1.94279 7.93325 1.6996C8.26766 1.60999 8.67535 1.60999 9.49065 1.60999C10.3059 1.60999 10.7136 1.60999 11.048 1.6996C11.9556 1.94279 12.6644 2.65169 12.9076 3.55929C12.9973 3.89374 12.9973 4.30137 12.9973 5.11665V17.39M3.52928 17.39H15.452C16.4339 17.39 16.9249 17.39 17.2999 17.1989C17.6299 17.0308 17.898 16.7625 18.0662 16.4327C18.2573 16.0576 18.2573 15.5666 18.2573 14.5847V7.92199C18.2573 6.94003 18.2573 6.44905 18.0662 6.07398C17.898 5.74408 17.6299 5.47586 17.2999 5.30776C16.9249 5.11666 16.4339 5.11665 15.452 5.11665H3.52928C2.54731 5.11665 2.05633 5.11666 1.68128 5.30776C1.35137 5.47586 1.08314 5.74408 0.915048 6.07398C0.723938 6.44905 0.723938 6.94003 0.723938 7.92199V14.5847C0.723938 15.5666 0.723938 16.0576 0.915048 16.4327C1.08314 16.7625 1.35137 17.0308 1.68128 17.1989C2.05633 17.39 2.54731 17.39 3.52928 17.39Z" stroke="#344054" stroke-width="1.43455" stroke-linecap="round" stroke-linejoin="round"/>
</svg>
