<svg width="15" height="21" viewBox="0 0 15 21" fill="none" xmlns="http://www.w3.org/2000/svg">
<path d="M7.50067 1.495H4.43229C2.73769 1.495 1.36395 2.86874 1.36395 4.56333C1.36395 6.25793 2.73769 7.63166 4.43229 7.63166M7.50067 1.495V7.63166M7.50067 1.495H10.569C12.2636 1.495 13.6373 2.86874 13.6373 4.56333C13.6373 6.25793 12.2636 7.63166 10.569 7.63166M4.43229 7.63166H7.50067M4.43229 7.63166C2.73769 7.63166 1.36395 9.0054 1.36395 10.7C1.36395 12.3946 2.73769 13.7683 4.43229 13.7683M7.50067 7.63166V13.7683M7.50067 7.63166H10.569M10.569 7.63166C12.2636 7.63166 13.6373 9.0054 13.6373 10.7C13.6373 12.3946 12.2636 13.7683 10.569 13.7683C8.87439 13.7683 7.50067 12.3946 7.50067 10.7C7.50067 9.0054 8.87439 7.63166 10.569 7.63166ZM7.50067 13.7683H4.43229M7.50067 13.7683V16.8367C7.50067 18.5313 6.12685 19.905 4.43229 19.905C2.73769 19.905 1.36395 18.5313 1.36395 16.8367C1.36395 15.1421 2.73769 13.7683 4.43229 13.7683" stroke="#344054" stroke-width="1.43455" stroke-linecap="round" stroke-linejoin="round"/>
</svg>
