<svg width="18" height="18" viewBox="0 0 18 18" fill="none" xmlns="http://www.w3.org/2000/svg">
<path d="M9.05989 0.666016C11.1443 2.94798 12.3289 5.90937 12.3932 8.99934C12.3289 12.0893 11.1443 15.0507 9.05989 17.3327M9.05989 0.666016C6.97549 2.94798 5.79093 5.90937 5.72656 8.99934C5.79093 12.0893 6.97549 15.0507 9.05989 17.3327M9.05989 0.666016C4.45752 0.666016 0.726562 4.39698 0.726562 8.99934C0.726562 13.6017 4.45752 17.3327 9.05989 17.3327M9.05989 0.666016C13.6623 0.666016 17.3932 4.39698 17.3932 8.99934C17.3932 13.6017 13.6623 17.3327 9.05989 17.3327M1.14324 6.49935H16.9766M1.14323 11.4993H16.9766" stroke="#1D2939" stroke-linecap="round" stroke-linejoin="round"/>
</svg>
