<svg width="14" height="14" viewBox="0 0 14 14" fill="none" xmlns="http://www.w3.org/2000/svg">
<path d="M3.28374 8.27485L2.81981 10.0068L1.12415 10.0426C0.617395 9.10272 0.329956 8.02734 0.329956 6.88456C0.329956 5.7795 0.598705 4.73741 1.07508 3.81982H1.07544L2.58506 4.09659L3.24636 5.59715C3.10795 6.00066 3.03251 6.43382 3.03251 6.88456C3.03257 7.37374 3.12118 7.84244 3.28374 8.27485Z" fill="#FBBB00"/>
<path d="M13.5426 5.63989C13.6191 6.04302 13.659 6.45934 13.659 6.88482C13.659 7.36192 13.6089 7.82731 13.5133 8.27623C13.1889 9.80383 12.3412 11.1377 11.167 12.0817L11.1666 12.0813L9.26518 11.9843L8.99606 10.3044C9.77524 9.84741 10.3842 9.1323 10.7049 8.27623H7.14148V5.63989H13.5426Z" fill="#518EF8"/>
<path d="M11.1672 12.0822L11.1675 12.0826C10.0253 13.0007 8.57441 13.55 6.99496 13.55C4.45677 13.55 2.25 12.1313 1.12427 10.0436L3.28417 8.27551C3.84702 9.77769 5.29612 10.847 6.99496 10.847C7.72517 10.847 8.40927 10.6496 8.99628 10.305L11.1672 12.0822Z" fill="#28B446"/>
<path d="M11.2491 1.75438L9.08992 3.52206C8.48239 3.14231 7.76423 2.92294 6.99484 2.92294C5.25754 2.92294 3.78135 4.04133 3.24669 5.59738L1.07544 3.8198H1.07507C2.18433 1.68114 4.41892 0.219971 6.99484 0.219971C8.61202 0.219971 10.0948 0.796025 11.2491 1.75438Z" fill="#F14336"/>
</svg>
