<svg width="19" height="20" viewBox="0 0 19 20" fill="none" xmlns="http://www.w3.org/2000/svg">
<path d="M7.74729 14.8613V16.9139C7.74729 17.8822 8.53225 18.6672 9.50066 18.6672C10.469 18.6672 11.254 17.8822 11.254 16.9139V14.8613M9.50066 1.13391V2.01058M1.61062 9.90063H0.733948M3.80229 4.20225L3.2762 3.67616M15.199 4.20225L15.7252 3.67616M18.2673 9.90063H17.3907M14.7607 9.90063C14.7607 12.8056 12.4056 15.1606 9.50066 15.1606C6.5956 15.1606 4.24062 12.8056 4.24062 9.90063C4.24062 6.99556 6.5956 4.64058 9.50066 4.64058C12.4056 4.64058 14.7607 6.99556 14.7607 9.90063Z" stroke="#5925DC" stroke-width="1.43455" stroke-linecap="round" stroke-linejoin="round"/>
</svg>
