<svg width="25" height="27" viewBox="0 0 25 27" fill="none" xmlns="http://www.w3.org/2000/svg">
<g clip-path="url(#clip0_1_6841)">
<g clip-path="url(#clip1_1_6841)">
<g clip-path="url(#clip2_1_6841)">
<path d="M21.718 26.47H3.35877C1.72019 26.47 0.404541 25.1424 0.404541 23.5158V3.49402C0.404541 1.85544 1.73215 0.539795 3.35877 0.539795H21.718C23.3566 0.539795 24.6723 1.8674 24.6723 3.49402V23.5158C24.6723 25.1424 23.3566 26.47 21.718 26.47Z" fill="#7A5AF8"/>
<path d="M18.8352 16.3516C18.7874 15.8373 18.7036 15.1675 18.3687 14.4499C18.285 14.2824 18.2013 14.103 18.0936 13.9356C18.859 12.8591 18.8591 11.3162 18.8591 9.80923V8.96005C18.8591 6.49617 16.8617 4.49878 14.3978 4.49878H9.4462C7.62824 4.49878 6.14514 5.98187 6.14514 7.81181C6.14514 9.62982 7.62824 11.1248 9.4462 11.1248L13.5008 11.1368C14.2184 11.1368 14.7926 10.5508 14.8045 9.84511C14.8045 9.12745 14.2304 8.54139 13.5128 8.54139L9.45822 8.52945C9.07543 8.52945 8.75249 8.21847 8.75249 7.82377C8.75249 7.44104 9.0635 7.11811 9.45822 7.11811H14.4098C15.1274 7.11811 15.7494 7.57261 16.0603 8.21847C16.2159 8.55332 16.2756 8.90022 16.2756 9.25905C16.2756 9.82117 16.2996 10.3713 16.2756 10.9335C16.2637 11.376 16.1919 11.8544 15.869 12.1893C15.5939 12.4764 15.1514 12.608 14.5294 12.608C14.4936 12.608 14.4577 12.608 14.4218 12.608H9.5778C8.86014 12.608 8.27407 13.194 8.27407 13.9116C8.27407 14.6293 8.86014 15.2153 9.5778 15.2153H14.4218C14.6251 15.2273 14.8284 15.2393 15.0198 15.2393C15.0676 15.2393 15.1155 15.2393 15.1633 15.2393C15.3188 15.4067 15.4504 15.598 15.5341 15.7894C15.6298 16.0047 15.6896 16.2559 15.7135 16.6386C15.7972 17.7151 15.7972 18.7915 15.7733 19.9995V20.2029C15.7733 20.466 15.7613 20.5257 15.7613 20.5497C15.7613 20.5975 15.7613 20.6214 15.7613 20.9563C15.7733 21.8175 16.467 22.5112 17.3282 22.5112H17.3401C17.7588 22.5112 18.1534 22.3438 18.4405 22.0448C18.7395 21.7458 18.8949 21.351 18.8949 20.9324C18.8949 20.6334 18.8949 20.6214 18.8949 20.5975C18.8949 20.5616 18.9069 20.5257 18.9069 20.2507V20.0473C18.9308 18.7317 18.9308 17.5596 18.8352 16.3516Z" fill="white"/>
</g>
</g>
</g>
<defs>
<clipPath id="clip0_1_6841">
<rect width="25" height="26.61" fill="white" transform="translate(0 0.199951)"/>
</clipPath>
<clipPath id="clip1_1_6841">
<rect width="25" height="26.61" fill="white" transform="translate(0 0.199951)"/>
</clipPath>
<clipPath id="clip2_1_6841">
<rect width="24.9973" height="26.61" fill="white" transform="translate(0.00134277 0.199951)"/>
</clipPath>
</defs>
</svg>
