<svg width="130" height="26" viewBox="0 0 130 26" fill="none" xmlns="http://www.w3.org/2000/svg">
<path d="M16.3104 6.28637C14.1651 6.28637 13.0164 7.56009 13.0164 9.81679V19.5635H7.10669V0.457764H10.4283L12.5043 2.65908C13.487 1.23307 14.9679 0.457764 16.9609 0.457764H18.7462V6.28637H16.3104Z" fill="white"/>
<path d="M20.1724 0.457764H26.0821V11.1874C26.0821 13.1811 27.3831 14.5517 29.293 14.5517C31.2029 14.5517 32.4762 13.1811 32.4762 11.1874V0.457764H38.3859V19.5635H35.0643L33.0436 17.4175C31.6735 19.0512 29.722 20.0065 27.4523 20.0065C23.148 20.0065 20.1724 16.8637 20.1724 12.2811V0.457764Z" fill="white"/>
<path d="M58.4955 19.5487H52.5859V8.88829C52.5859 6.83928 51.271 5.44097 49.2918 5.44097C47.3127 5.44097 45.9978 6.83928 45.9978 8.88829V19.5487H40.0881V0.443033H43.4096L45.458 2.61665C46.8281 0.955285 48.8072 0 51.1326 0C55.492 0 58.4955 3.18428 58.4955 7.82226V19.5349V19.5487Z" fill="white"/>
<path d="M57.8452 0.457764H64.0179L66.9244 11.2982L70.426 0.457764H74.7302L78.2319 11.3397L81.138 0.457764H86.8126L80.8059 19.5635H75.6437L72.253 9.06917L68.8345 19.5635H63.9902L57.8729 0.457764H57.8452Z" fill="white"/>
<path d="M94.8529 0.0135498C99.8768 0.0135498 102.908 2.78249 102.908 7.40661V19.5623H99.5585L97.8283 17.6932C96.5276 19.2023 94.673 20.0053 92.4169 20.0053C88.4035 20.0053 85.5799 17.5133 85.5799 13.9967C85.5799 10.4801 88.3203 8.05731 93.0953 8.05731H97.1641V7.43431C97.1641 5.80064 96.2506 4.91456 94.5485 4.91456C92.846 4.91456 92.0296 5.68988 91.9326 6.99127H86.1474C86.4795 2.76864 89.898 0.0135498 94.8529 0.0135498ZM97.1641 12.6122V11.7815H93.7179C92.2369 11.7815 91.3789 12.4599 91.3789 13.6229C91.3789 14.7859 92.3895 15.6165 94.0777 15.6165C95.7663 15.6165 97.1641 14.5782 97.1641 12.6122Z" fill="white"/>
<path d="M112.61 25.9046H106.368L109.718 17.8885L101.967 0.444214H108.86L112.873 10.8416L116.652 0.444214H122.894L112.61 25.9046Z" fill="white"/>
</svg>
